<svg width="48" height="48" viewBox="0 0 48 48" fill="none" xmlns="http://www.w3.org/2000/svg">
<path d="M30.1044 24.0943C30.1044 22.7918 29.0511 21.7324 27.7566 21.7324H20.2434C18.9489 21.7324 17.8956 22.7918 17.8956 24.0943V32.9743H30.1044V24.0943Z" fill="white"/>
<path d="M19.7739 14.6475C19.7739 16.9915 21.6698 18.8985 24 18.8985C26.3302 18.8985 28.2261 16.9915 28.2261 14.6475C28.2261 12.3036 26.3302 10.3965 24 10.3965C21.6698 10.3965 19.7739 12.3036 19.7739 14.6475Z" fill="white"/>
<path d="M36.4406 7.27348C39.3849 11.4725 41.1039 16.931 41.3438 22.7719H48C47.662 16.8448 45.2076 11.3204 41.0002 7.08819C36.7928 2.856 31.3008 0.387553 25.4088 0.0471802V0.082912C29.6067 0.543005 33.4819 3.05455 36.4406 7.27348Z" fill="white"/>
<path d="M21.8921 45.3139C22.585 45.4627 23.2892 45.5382 24 45.5382C24.7108 45.5382 25.415 45.4627 26.1079 45.3139L27.5288 35.8081H20.4712L21.8921 45.3139Z" fill="white"/>
<path d="M22.5912 7.70487V2.9389C19.322 3.40379 16.2638 5.48176 13.8618 8.90686C11.2463 12.637 9.71045 17.5164 9.47607 22.7719H15.2483C15.6903 21.0844 16.957 19.7314 18.5863 19.1744C17.5693 17.9459 16.9563 16.3674 16.9563 14.6475C16.9563 11.2257 19.3802 8.36314 22.5912 7.70487Z" fill="white"/>
<path d="M11.5598 41.1038C8.61511 36.9048 6.89612 31.4463 6.65625 25.6058H0C0.338013 31.5325 2.79236 37.0569 6.99976 41.2891C10.4451 44.7547 14.7528 47.0379 19.4355 47.9382L19.3726 47.5175C16.4279 46.4021 13.7439 44.2187 11.5598 41.1038Z" fill="white"/>
<path d="M11.5598 7.27348C14.5181 3.05455 18.3933 0.543005 22.5912 0.082912V0.0471802C16.6992 0.387185 11.2068 2.856 6.99976 7.08819C2.79236 11.3204 0.338013 16.8448 0 22.7715H6.65625C6.89612 16.931 8.61511 11.4725 11.5598 7.27348Z" fill="white"/>
<path d="M36.4406 41.1038C34.2561 44.2187 31.5721 46.4021 28.6274 47.5175L28.5645 47.9382C33.2472 47.0379 37.5549 44.7547 41.0002 41.2891C45.2076 37.0573 47.6616 31.5325 48 25.6058H41.3438C41.1039 31.4463 39.3849 36.9051 36.4406 41.1038Z" fill="white"/>
<path d="M34.1382 39.4705C36.7537 35.7404 38.2896 30.8609 38.5239 25.6058H32.922V35.8081H30.3779L29.1288 44.1642C30.9745 43.1376 32.6777 41.5529 34.1382 39.4705Z" fill="white"/>
<path d="M13.8618 39.4705C15.3223 41.5529 17.0255 43.1376 18.8712 44.1642L17.6221 35.8081H15.078V25.6058H9.47607C9.71045 30.8609 11.2463 35.7404 13.8618 39.4705Z" fill="white"/>
<path d="M31.0437 14.6475C31.0437 16.3674 30.4307 17.9459 29.4137 19.1744C31.043 19.7314 32.3097 21.0844 32.7517 22.7715H38.5239C38.2896 17.5164 36.7537 12.637 34.1382 8.90686C31.7362 5.48176 28.678 3.40379 25.4088 2.9389V7.70487C28.6198 8.36314 31.0437 11.2257 31.0437 14.6475Z" fill="white"/>
</svg>
