<svg width="48" height="48" viewBox="0 0 48 48" fill="none" xmlns="http://www.w3.org/2000/svg">
<path d="M8.45215 39.6522C12.077 39.6522 15.0261 36.7031 15.0261 33.0782C15.0261 29.4534 12.077 26.5043 8.45215 26.5043C4.82732 26.5043 1.87823 29.4534 1.87823 33.0782C1.87823 36.7031 4.82732 39.6522 8.45215 39.6522Z" fill="white"/>
<path d="M8.45217 42.4351C5.45613 42.4351 2.78291 41.0184 1.06239 38.8174C0.396562 39.6906 0 40.7812 0 41.9635V48H16.9043V41.9635C16.9043 40.7812 16.5078 39.6906 15.842 38.8174C14.1214 41.0184 11.4482 42.4351 8.45217 42.4351Z" fill="white"/>
<path d="M32.9739 33.0782C32.9739 36.7031 35.923 39.6522 39.5479 39.6522C43.1727 39.6522 46.1218 36.7031 46.1218 33.0782C46.1218 29.4534 43.1727 26.5043 39.5479 26.5043C35.923 26.5043 32.9739 29.4534 32.9739 33.0782Z" fill="white"/>
<path d="M46.9376 38.8174C45.2171 41.0184 42.5439 42.4351 39.5478 42.4351C36.5518 42.4351 33.8785 41.0184 32.158 38.8174C31.4922 39.6906 31.0956 40.7812 31.0956 41.9635V48H48V41.9635C48 40.7812 47.6034 39.6906 46.9376 38.8174V38.8174Z" fill="white"/>
<path fill-rule="evenodd" clip-rule="evenodd" d="M42.5411 24.1862C41.6005 23.8683 40.5936 23.6956 39.5473 23.6956C34.3829 23.6956 30.1815 27.8971 30.1815 33.0615C30.1815 34.489 30.503 35.8427 31.0767 37.0548C28.8424 37.9412 26.4505 38.4 24 38.4C21.5477 38.4 19.1565 37.9409 16.9233 37.0548C17.4969 35.8427 17.8185 34.489 17.8185 33.0615C17.8185 27.8971 13.6171 23.6956 8.45267 23.6956C7.40633 23.6956 6.39987 23.8683 5.45962 24.1862C5.02535 22.5666 4.79999 20.8888 4.79999 19.2C4.79999 8.61293 13.4129 0 24 0C34.5871 0 43.2 8.61293 43.2 19.2C43.2 20.8895 42.9754 22.5673 42.5411 24.1862ZM37.5805 19.2C37.5805 18.424 36.9516 17.7951 36.1756 17.7951C35.3996 17.7951 34.7707 18.424 34.7707 19.2C34.7707 19.976 35.3996 20.6049 36.1756 20.6049C36.9516 20.6049 37.5805 19.976 37.5805 19.2ZM24 5.61951C24.776 5.61951 25.4049 6.24841 25.4049 7.02439C25.4049 7.80037 24.776 8.42927 24 8.42927C23.224 8.42927 22.5951 7.80037 22.5951 7.02439C22.5951 6.24841 23.224 5.61951 24 5.61951ZM10.4195 19.2C10.4195 19.976 11.0484 20.6049 11.8244 20.6049C12.6004 20.6049 13.2293 19.976 13.2293 19.2C13.2293 18.424 12.6004 17.7951 11.8244 17.7951C11.0484 17.7951 10.4195 18.424 10.4195 19.2ZM13.6943 11.8149L15.574 9.72659L24.5393 17.7951H31.8673V20.6049H23.4607L13.6943 11.8149ZM22.5951 31.3756C22.5951 32.1516 23.224 32.7805 24 32.7805C24.776 32.7805 25.4049 32.1516 25.4049 31.3756C25.4049 30.5996 24.776 29.9707 24 29.9707C23.224 29.9707 22.5951 30.5996 22.5951 31.3756Z" fill="white"/>
</svg>
