<svg width="48" height="48" viewBox="0 0 48 48" fill="none" xmlns="http://www.w3.org/2000/svg">
<path d="M8.15096 24.4528C11.6466 24.4528 14.4906 21.6088 14.4906 18.1132C14.4906 14.6175 11.6466 11.7736 8.15096 11.7736C4.65533 11.7736 1.81134 14.6175 1.81134 18.1132C1.81134 21.6088 4.65533 24.4528 8.15096 24.4528Z" fill="white"/>
<path d="M19.9035 26.717V29.8868H22.6415V21.7358H18.1132C19.2283 23.0795 19.9035 24.8186 19.9035 26.717Z" fill="white"/>
<path d="M38.0378 5.43396L32.4102 0H28.0755V10.8679H32.4102L38.0378 5.43396Z" fill="white"/>
<path d="M33.5095 18.1132C33.5095 21.6088 36.3534 24.4528 39.8491 24.4528C43.3447 24.4528 46.1887 21.6088 46.1887 18.1132C46.1887 14.6175 43.3447 11.7736 39.8491 11.7736C36.3534 11.7736 33.5095 14.6175 33.5095 18.1132Z" fill="white"/>
<path d="M25.3585 29.8868H28.0965V26.717C28.0965 24.8186 28.7717 23.0795 29.8868 21.7358H25.3585V29.8868Z" fill="white"/>
<path d="M22.6415 0H25.3585V19.0189H22.6415L22.6415 0Z" fill="white"/>
<path d="M22.6415 33.5095H25.3585V42.5661H22.6415L22.6415 33.5095Z" fill="white"/>
<path d="M8.60377 27.9934C5.55399 27.9934 2.83282 26.607 1.08145 24.4528C0.403675 25.3074 0 26.3747 0 27.5319V37.1321H17.2075V27.5319C17.2075 26.3747 16.8039 25.3074 16.1261 24.4528C14.3747 26.607 11.6536 27.9934 8.60377 27.9934Z" fill="white"/>
<path d="M46.9186 24.4528C45.1672 26.607 42.446 27.9934 39.3963 27.9934C36.3465 27.9934 33.6253 26.607 31.8739 24.4528C31.1962 25.3074 30.7925 26.3747 30.7925 27.5319V37.1321H48V27.5319C48 26.3747 47.5964 25.3074 46.9186 24.4528Z" fill="white"/>
<path d="M4.256 48H12.9515L14.4906 39.8491H2.71698L4.256 48Z" fill="white"/>
<path d="M35.0485 48H43.744L45.283 39.8491H33.5095L35.0485 48Z" fill="white"/>
</svg>
