<svg width="15" height="15" viewBox="0 0 15 15" fill="none" xmlns="http://www.w3.org/2000/svg">
<path d="M2 2.70711L1.29289 2L0.585786 2.70711L1.29289 3.41421L2 2.70711ZM6.64645 7.35355L7.35355 8.06066L8.06066 7.35355L7.35355 6.64645L6.64645 7.35355ZM2.70711 2L3.41421 1.29289L2.70711 0.585787L2 1.29289L2.70711 2ZM7.35355 6.64645L6.64645 7.35355L7.35355 8.06066L8.06066 7.35355L7.35355 6.64645ZM12 2L12.7071 1.29289L12 0.585787L11.2929 1.29289L12 2ZM12.7071 2.70711L13.4142 3.41421L14.1213 2.70711L13.4142 2L12.7071 2.70711ZM8.06066 7.35355L7.35355 6.64645L6.64645 7.35355L7.35355 8.06066L8.06066 7.35355ZM12.7071 12L13.4142 12.7071L14.1213 12L13.4142 11.2929L12.7071 12ZM12 12.7071L11.2929 13.4142L12 14.1213L12.7071 13.4142L12 12.7071ZM7.35355 8.06066L8.06066 7.35355L7.35355 6.64645L6.64645 7.35355L7.35355 8.06066ZM2.70711 12.7071L2 13.4142L2.70711 14.1213L3.41421 13.4142L2.70711 12.7071ZM2 12L1.29289 11.2929L0.585787 12L1.29289 12.7071L2 12ZM1.29289 3.41421L5.93934 8.06066L7.35355 6.64645L2.70711 2L1.29289 3.41421ZM2 1.29289L1.29289 2L2.70711 3.41421L3.41421 2.70711L2 1.29289ZM8.06066 5.93934L3.41421 1.29289L2 2.70711L6.64645 7.35355L8.06066 5.93934ZM8.06066 7.35355L12.7071 2.70711L11.2929 1.29289L6.64645 5.93934L8.06066 7.35355ZM11.2929 2.70711L12 3.41421L13.4142 2L12.7071 1.29289L11.2929 2.70711ZM12 2L7.35355 6.64645L8.76777 8.06066L13.4142 3.41421L12 2ZM13.4142 11.2929L8.76777 6.64645L7.35355 8.06066L12 12.7071L13.4142 11.2929ZM12.7071 13.4142L13.4142 12.7071L12 11.2929L11.2929 12L12.7071 13.4142ZM6.64645 8.76777L11.2929 13.4142L12.7071 12L8.06066 7.35355L6.64645 8.76777ZM6.64645 7.35355L2 12L3.41421 13.4142L8.06066 8.76777L6.64645 7.35355ZM3.41421 12L2.70711 11.2929L1.29289 12.7071L2 13.4142L3.41421 12ZM2.70711 12.7071L7.35355 8.06066L5.93934 6.64645L1.29289 11.2929L2.70711 12.7071Z" fill="white"/>
</svg>
