<svg width="19" height="20" viewBox="0 0 19 20" fill="none" xmlns="http://www.w3.org/2000/svg">
<path fill-rule="evenodd" clip-rule="evenodd" d="M13.8267 17.6633H2.11847C0.949208 17.6633 0 16.7758 0 15.6V2.06667C0 0.951667 0.95085 0.0025 2.12258 0.0025L15.8902 0C17.0628 0 18.0087 0.9475 18.0645 2.0625V20L15.8311 18.1058L14.6052 16.9908L13.2676 15.8258L13.8267 17.6633ZM7.41384 4.735C7.41384 4.735 6.01877 4.68167 4.51367 5.79333C4.51367 5.79333 3.00856 8.41333 3.00856 11.6433C3.00856 11.6433 3.84282 13.0933 6.13044 13.1483C6.13044 13.1483 6.46463 12.7042 6.80211 12.3133C5.51707 11.9233 5.01701 11.1433 5.01701 11.1433L5.44645 11.365C5.52951 11.3992 5.61289 11.434 5.69686 11.4691C6.88307 11.9642 8.1887 12.5092 10.4002 12.145L10.4349 12.1372C10.9234 12.0274 11.4127 11.9173 11.9012 11.6992C11.9909 11.6532 12.0863 11.6072 12.1867 11.5589C12.4503 11.4319 12.7482 11.2884 13.0664 11.085C13.0664 11.085 12.5655 11.865 11.2271 12.255C11.503 12.6433 11.8906 13.0883 11.8906 13.0883C13.7656 13.0474 14.7013 12.0665 15.0058 11.7474C15.0729 11.677 15.1093 11.6389 15.1184 11.65C15.1184 8.425 13.6042 5.8 13.6042 5.8C12.251 4.79583 10.9865 4.75083 10.7476 4.75L10.5948 4.9025C12.3233 5.4025 13.16 6.18333 13.16 6.18333C10.6523 4.93 7.94346 4.85833 5.46287 5.84833C5.07284 6.0175 4.8495 6.12833 4.8495 6.12833C4.8495 6.12833 5.68457 5.29333 7.52633 4.8475L7.41384 4.735Z" fill="#44445C"/>
<path d="M11.2903 10.3227C11.8237 10.3227 12.2581 9.88856 12.2581 9.35314C12.2581 8.82133 11.826 8.38721 11.2903 8.38721V8.38938C10.7592 8.38938 10.3241 8.82206 10.3226 9.35748C10.3226 9.88856 10.7569 10.3227 11.2903 10.3227Z" fill="#44445C"/>
<path d="M7.41936 10.3227C7.95274 10.3227 8.3871 9.88856 8.3871 9.35314C8.3871 8.82133 7.95574 8.38721 7.42236 8.38721L7.41936 8.38938C6.88597 8.38938 6.45161 8.82206 6.45161 9.35748C6.45161 9.88856 6.88597 10.3227 7.41936 10.3227Z" fill="#44445C"/>
</svg>
