<svg width="20" height="20" viewBox="0 0 20 20" fill="none" xmlns="http://www.w3.org/2000/svg">
<path d="M10 0V20C15.523 20 20 15.5229 20 10.0001C20 4.47697 15.5229 0 10 0Z" fill="#214391"/>
<path d="M9.97189 0C4.46463 0 0 4.47697 0 10.0001C0 15.5229 4.46463 20 9.97189 20C15.4795 20 15.4795 0 9.97189 0Z" fill="#2B479D"/>
<path d="M9.9978 1.71259L10.2415 2.46241H11.0302L10.3922 2.92581L10.6359 3.67564L9.9978 3.21194L9.35987 3.67564L9.6036 2.92581L8.96533 2.46241H9.75407L9.9978 1.71259Z" fill="#F8D12E"/>
<path d="M9.9978 15.8677L10.2415 16.6179H11.0302L10.3922 17.0813L10.6359 17.8311L9.9978 17.3677L9.35987 17.8311L9.6036 17.0813L8.96533 16.6179H9.75407L9.9978 15.8677Z" fill="#F8D12E"/>
<path d="M13.8829 2.96713L14.1265 3.71713H14.9152L14.2771 4.18082L14.5208 4.93065L13.8829 4.46695L13.2448 4.93065L13.4885 4.18082L12.8506 3.71713H13.6393L13.8829 2.96713Z" fill="#F8D12E"/>
<path d="M16.5339 5.58221L16.7775 6.33204H17.5662L16.9281 6.79561L17.1719 7.54543L16.5339 7.08203L15.8958 7.54543L16.1396 6.79561L15.5015 6.33204H16.29L16.5339 5.58221Z" fill="#F8D12E"/>
<path d="M16.5969 12.1893L16.8405 12.9394H17.6292L16.9911 13.4028L17.235 14.1525L16.5969 13.6892L15.9588 14.1525L16.2026 13.4028L15.5645 12.9394H16.3532L16.5969 12.1893Z" fill="#F8D12E"/>
<path d="M3.5572 5.58221L3.80077 6.33204H4.58933L3.9514 6.79561L4.19497 7.54543L3.5572 7.08203L2.91914 7.54543L3.16283 6.79561L2.5249 6.33204H3.31364L3.5572 5.58221Z" fill="#F8D12E"/>
<path d="M17.1486 8.73322L17.3922 9.48304H18.1809L17.5429 9.94644L17.7866 10.6964L17.1486 10.2332L16.5106 10.6964L16.7544 9.94644L16.1162 9.48304H16.9048L17.1486 8.73322Z" fill="#F8D12E"/>
<path d="M2.95479 8.73322L3.19835 9.48304H3.98692L3.34886 9.94644L3.59272 10.6964L2.95479 10.2332L2.31669 10.6964L2.56042 9.94644L1.92236 9.48304H2.71106L2.95479 8.73322Z" fill="#F8D12E"/>
<path d="M3.47188 12.1893L3.71544 12.9394H4.50401L3.86612 13.4028L4.10964 14.1525L3.47188 13.6892L2.83382 14.1525L3.07751 13.4028L2.43945 12.9394H3.22819L3.47188 12.1893Z" fill="#F8D12E"/>
<path d="M13.9973 14.9159L14.2408 15.6657H15.0296L14.3913 16.1294L14.6352 16.8792L13.9973 16.4158L13.359 16.8792L13.6029 16.1294L12.9648 15.6657H13.7536L13.9973 14.9159Z" fill="#F8D12E"/>
<path d="M6.23835 2.96713L6.48188 3.71713H7.27061L6.63255 4.18082L6.87641 4.93065L6.23835 4.46695L5.60042 4.93065L5.84411 4.18082L5.20605 3.71713H5.99462L6.23835 2.96713Z" fill="#F8D12E"/>
<path d="M5.95027 14.8679L6.19396 15.6181H6.9827L6.34464 16.0813L6.58833 16.8311L5.95027 16.368L5.31234 16.8311L5.55603 16.0813L4.91797 15.6181H5.70654L5.95027 14.8679Z" fill="#F8D12E"/>
</svg>
