<svg width="14" height="9" viewBox="0 0 14 9" fill="none" xmlns="http://www.w3.org/2000/svg">
<path fill-rule="evenodd" clip-rule="evenodd" d="M0 4.5C0 4.5 2.33332 0 7 0C11.6667 0 14 4.5 14 4.5C14 4.5 11.6667 9 7 9C2.33332 9 0 4.5 0 4.5ZM3.5 4.5C3.5 6.36397 5.06699 7.87499 7 7.87499C8.93298 7.87499 10.5 6.36397 10.5 4.5C10.5 2.63603 8.93298 1.12501 7 1.12501C5.06699 1.12501 3.5 2.63603 3.5 4.5Z" fill="#4B4B57"/>
<path fill-rule="evenodd" clip-rule="evenodd" d="M7 5.5C7.55228 5.5 8 5.05228 8 4.5C8 3.94772 7.55228 3.5 7 3.5C6.44772 3.5 6 3.94772 6 4.5C6 5.05228 6.44772 5.5 7 5.5Z" fill="#4B4B57"/>
</svg>
