<svg width="12" height="80" viewBox="0 0 12 80" fill="none" xmlns="http://www.w3.org/2000/svg">
<path opacity="0.2" d="M11 72.1953V73.5146H6.39941V78.5322H11V79.8447H1.04688V78.5322H5.32617V73.5146H1.04688V72.1953H11ZM7.2334 70.3975C6.50879 70.3975 5.8571 70.2562 5.27832 69.9736C4.69954 69.6865 4.25293 69.29 3.93848 68.7842C3.62402 68.2738 3.4668 67.6927 3.4668 67.041C3.4668 66.0339 3.81543 65.2204 4.5127 64.6006C5.20996 63.9762 6.13737 63.6641 7.29492 63.6641H7.38379C8.10384 63.6641 8.75098 63.8031 9.3252 64.0811C9.89486 64.3545 10.3392 64.7487 10.6582 65.2637C10.9772 65.7741 11.1367 66.362 11.1367 67.0273C11.1367 68.0299 10.7881 68.8434 10.0908 69.4678C9.39355 70.0876 8.4707 70.3975 7.32227 70.3975H7.2334ZM7.38379 69.126C8.2041 69.126 8.86263 68.9368 9.35938 68.5586C9.85612 68.1758 10.1045 67.6654 10.1045 67.0273C10.1045 66.3848 9.85384 65.8743 9.35254 65.4961C8.84668 65.1178 8.1403 64.9287 7.2334 64.9287C6.4222 64.9287 5.76595 65.1224 5.26465 65.5098C4.75879 65.8926 4.50586 66.403 4.50586 67.041C4.50586 67.6654 4.75423 68.1689 5.25098 68.5518C5.74772 68.9346 6.45866 69.126 7.38379 69.126ZM9.25684 55.5293L3.60352 54.1074V52.8428L11 54.9961V56.0215L5.39453 57.8193L11 59.5693V60.5947L3.60352 62.7412V61.4834L9.14063 60.0273L3.60352 58.3047V57.2861L9.25684 55.5293ZM11 46.7041V47.9688H3.60352V46.7041H11ZM1.6416 48.0713C1.43652 48.0713 1.26335 48.0098 1.12207 47.8867C0.980794 47.7591 0.910156 47.5723 0.910156 47.3262C0.910156 47.0801 0.980794 46.8932 1.12207 46.7656C1.26335 46.638 1.43652 46.5742 1.6416 46.5742C1.84668 46.5742 2.01758 46.638 2.1543 46.7656C2.29102 46.8932 2.35938 47.0801 2.35938 47.3262C2.35938 47.5723 2.29102 47.7591 2.1543 47.8867C2.01758 48.0098 1.84668 48.0713 1.6416 48.0713ZM1.8125 42.958H3.60352V41.5771H4.58105V42.958H9.16797C9.46419 42.958 9.6875 42.8965 9.83789 42.7734C9.98372 42.6504 10.0566 42.4408 10.0566 42.1445C10.0566 41.9987 10.0293 41.7982 9.97461 41.543H11C11.0911 41.8757 11.1367 42.1992 11.1367 42.5137C11.1367 43.0788 10.9658 43.5049 10.624 43.792C10.2822 44.0791 9.79688 44.2227 9.16797 44.2227H4.58105V45.5693H3.60352L3.60352 44.2227H1.8125V42.958ZM9.25684 30.0723L3.60352 28.6504V27.3857L11 29.5391V30.5645L5.39453 32.3623L11 34.1123V35.1377L3.60352 37.2842V36.0264L9.14063 34.5703L3.60352 32.8477V31.8291L9.25684 30.0723ZM7.2334 26.4287C6.50879 26.4287 5.8571 26.2874 5.27832 26.0049C4.69954 25.7178 4.25293 25.3213 3.93848 24.8154C3.62402 24.305 3.4668 23.724 3.4668 23.0723C3.4668 22.0651 3.81543 21.2516 4.5127 20.6318C5.20996 20.0075 6.13737 19.6953 7.29492 19.6953H7.38379C8.10384 19.6953 8.75098 19.8343 9.3252 20.1123C9.89486 20.3857 10.3392 20.7799 10.6582 21.2949C10.9772 21.8053 11.1367 22.3932 11.1367 23.0586C11.1367 24.0612 10.7881 24.8747 10.0908 25.499C9.39355 26.1188 8.4707 26.4287 7.32227 26.4287H7.2334ZM7.38379 25.1572C8.2041 25.1572 8.86263 24.9681 9.35938 24.5898C9.85612 24.207 10.1045 23.6966 10.1045 23.0586C10.1045 22.416 9.85384 21.9056 9.35254 21.5273C8.84668 21.1491 8.1403 20.96 7.2334 20.96C6.4222 20.96 5.76595 21.1536 5.26465 21.541C4.75879 21.9238 4.50586 22.4342 4.50586 23.0723C4.50586 23.6966 4.75423 24.2002 5.25098 24.583C5.74772 24.9658 6.45866 25.1572 7.38379 25.1572ZM4.73828 14.5342C4.70638 14.7256 4.69043 14.9329 4.69043 15.1562C4.69043 15.9857 5.04362 16.5485 5.75 16.8447H11V18.1094H3.60352V16.8789L4.45801 16.8584C3.7972 16.4437 3.4668 15.8558 3.4668 15.0947C3.4668 14.8486 3.4987 14.6618 3.5625 14.5342H4.73828ZM7.5752 11.3008L8.40234 12.0938H11V13.3584H0.5V12.0938H6.85059L6.03711 11.417L3.60352 9.11328V7.5752L6.69336 10.4531L11 7.24023L11 8.72363L7.5752 11.3008ZM9.03809 1.96289C8.69629 1.96289 8.43197 2.09277 8.24512 2.35254C8.05371 2.60775 7.88965 3.05664 7.75293 3.69922C7.61621 4.33724 7.45215 4.84538 7.26074 5.22363C7.06934 5.59733 6.84147 5.87533 6.57715 6.05762C6.31283 6.23535 5.99837 6.32422 5.63379 6.32422C5.02767 6.32422 4.51497 6.06901 4.0957 5.55859C3.67643 5.04362 3.4668 4.38737 3.4668 3.58984C3.4668 2.7513 3.68327 2.07227 4.11621 1.55273C4.54915 1.02865 5.10286 0.766602 5.77734 0.766602V2.03809C5.43099 2.03809 5.13249 2.1862 4.88184 2.48242C4.63118 2.77409 4.50586 3.14323 4.50586 3.58984C4.50586 4.05013 4.60612 4.41016 4.80664 4.66992C5.00716 4.92969 5.26921 5.05957 5.59277 5.05957C5.89811 5.05957 6.12826 4.9388 6.2832 4.69727C6.43815 4.45573 6.58626 4.02051 6.72754 3.3916C6.86882 2.75814 7.03743 2.24544 7.2334 1.85352C7.42936 1.46159 7.66634 1.1722 7.94434 0.985352C8.21777 0.793945 8.55273 0.698242 8.94922 0.698242C9.61003 0.698242 10.141 0.962565 10.542 1.49121C10.9385 2.01986 11.1367 2.70573 11.1367 3.54883C11.1367 4.14128 11.0319 4.66536 10.8223 5.12109C10.6126 5.57682 10.321 5.93457 9.94727 6.19434C9.56901 6.44954 9.16113 6.57715 8.72363 6.57715V5.3125C9.14746 5.28971 9.4847 5.12109 9.73535 4.80664C9.98145 4.48763 10.1045 4.06836 10.1045 3.54883C10.1045 3.07031 10.0088 2.6875 9.81738 2.40039C9.62142 2.10872 9.36165 1.96289 9.03809 1.96289Z" fill="white"/>
</svg>
