<svg width="48" height="48" viewBox="0 0 48 48" fill="none" xmlns="http://www.w3.org/2000/svg">
<path d="M15.4688 25.5C11.5917 25.5 8.4375 28.6542 8.4375 32.5312C8.4375 36.4083 11.5917 39.5625 15.4688 39.5625C17.7642 39.5625 19.8058 38.4565 21.0901 36.75H15.4688C13.1426 36.75 11.25 34.8574 11.25 32.5312C11.25 30.2051 13.1426 28.3125 15.4688 28.3125H21.0901C19.8058 26.606 17.7642 25.5 15.4688 25.5Z" fill="white"/>
<path d="M15.4688 42.375C10.0408 42.375 5.625 37.9592 5.625 32.5312C5.625 27.1036 10.0408 22.6875 15.4688 22.6875C19.3876 22.6875 22.7787 24.9899 24.3615 28.3125H30.3527C28.5117 21.8269 22.5363 17.0625 15.4688 17.0625C6.93933 17.0625 0 24.0018 0 32.5312C0 41.0607 6.93933 48 15.4688 48C22.5363 48 28.5117 43.2356 30.3527 36.75H24.3615C22.7787 40.073 19.3879 42.375 15.4688 42.375Z" fill="white"/>
<path d="M14.0625 32.5312C14.0625 33.3069 14.6935 33.9375 15.4688 33.9375C16.2444 33.9375 16.875 33.3069 16.875 32.5312C16.875 31.756 16.2444 31.125 15.4688 31.125C14.6935 31.125 14.0625 31.756 14.0625 32.5312Z" fill="white"/>
<path d="M47.944 28.3125H37.3865L34.574 31.125H19.4458C19.6018 31.5652 19.6875 32.0383 19.6875 32.5312C19.6875 33.0242 19.6018 33.4973 19.4458 33.9375H34.574L37.3865 36.75H47.944L44.7096 32.5312L47.944 28.3125Z" fill="white"/>
<path fill-rule="evenodd" clip-rule="evenodd" d="M14.6964 8.36536L13.7311 14.3331C12.7277 14.4283 11.7473 14.6045 10.7974 14.8561L12.1062 6.76318C11.5693 6.0553 11.25 5.17383 11.25 4.21875C11.25 1.89258 13.1426 0 15.4688 0C17.7949 0 19.6875 1.89258 19.6875 4.21875C19.6875 5.17383 19.3682 6.0553 18.8309 6.76318L20.1401 14.8561C19.1902 14.6045 18.2102 14.4283 17.2064 14.3331L16.2411 8.36536C15.9906 8.41187 15.7328 8.4375 15.4688 8.4375C15.2047 8.4375 14.9469 8.41187 14.6964 8.36536ZM16.875 4.21875C16.875 3.44348 16.2444 2.8125 15.4688 2.8125C14.6935 2.8125 14.0625 3.44348 14.0625 4.21875C14.0625 4.99438 14.6935 5.625 15.4688 5.625C16.2444 5.625 16.875 4.99438 16.875 4.21875Z" fill="white"/>
</svg>
