<svg width="48" height="43" viewBox="0 0 48 43" fill="none" xmlns="http://www.w3.org/2000/svg">
<path d="M42.0266 30.865L47.9999 24.8921L42.0266 18.9188L42.989 17.9564C44.6542 16.2913 44.6542 13.582 42.9894 11.9169C42.1826 11.1105 41.11 10.6663 39.9692 10.6663C38.8289 10.6663 37.7562 11.1105 36.9498 11.9169L35.9874 12.8793L30.0142 6.90601L28.2516 8.66895V11.4551C31.3695 12.1981 33.6953 15.0073 33.6953 18.3494C33.6953 21.6918 31.3695 24.501 28.2516 25.2437V33.8829H23.0807L22.0498 34.9138L30.0142 42.8778L35.9874 36.9045L36.8169 37.7344C38.4821 39.3995 41.1913 39.3995 42.8564 37.7344C44.5216 36.0692 44.5216 33.36 42.8564 31.6948L42.0266 30.865Z" fill="white"/>
<path d="M25.4359 31.0675V22.6201H26.6089C28.964 22.6201 30.8796 20.7045 30.8796 18.3494C30.8796 15.9946 28.964 14.079 26.6089 14.079H25.4359V5.63159H16.9885V4.27075C16.9885 1.91565 15.0729 0 12.7178 0C10.363 0 8.44739 1.91565 8.44739 4.27075V5.63159H0V14.079H1.17334C3.2395 14.079 4.96729 15.5537 5.35986 17.506C5.53015 17.744 5.63159 18.0348 5.63159 18.3494C5.63159 18.6639 5.53015 18.9547 5.35986 19.1931C4.96729 21.145 3.2395 22.6201 1.17334 22.6201H0V31.0675H8.44739V29.7063C8.44739 27.3516 10.363 25.4359 12.7178 25.4359C15.0729 25.4359 16.9885 27.3516 16.9885 29.7063V31.0675H25.4359Z" fill="white"/>
</svg>
