<svg width="48" height="44" viewBox="0 0 48 44" fill="none" xmlns="http://www.w3.org/2000/svg">
<path d="M30.4842 16.0884L30.4828 16.0899L21.5356 25.0541C20.2078 26.3845 18.4426 27.1169 16.5647 27.1169C14.6869 27.1169 12.9213 26.3845 11.5938 25.0541C10.266 23.7238 9.53456 21.9553 9.53456 20.0739C9.53456 18.1929 10.266 16.424 11.5934 15.0937L19.8121 6.85996C19.3897 6.76873 18.9553 6.72 18.5132 6.72C18.4996 6.72 18.4861 6.72 18.4729 6.72C16.8456 6.73062 15.3195 7.37546 14.1764 8.53579L4.95714 17.8914C3.8136 19.0517 3.18972 20.5883 3.20033 22.2187C3.21057 23.8491 3.85419 25.378 5.01236 26.5233L18.2857 39.6526L21.2873 42.6214C22.0824 43.408 23.1337 43.84 24.2498 43.84H24.2776C25.4043 43.8327 26.4605 43.3864 27.2522 42.5833C27.2522 42.5829 27.2526 42.5829 27.2526 42.5829C25.7503 42.3807 24.3592 41.7011 23.2628 40.6166L20.2615 37.6478L22.237 35.6429L25.2387 38.6117C26.0337 39.3983 27.0847 39.8307 28.2012 39.8307C28.2103 39.8307 28.2198 39.8307 28.229 39.8303C29.3557 39.8234 30.4118 39.3767 31.2036 38.5736C31.2043 38.5729 31.2047 38.5722 31.2054 38.5714C29.702 38.3699 28.3102 37.691 27.2142 36.6073L24.2125 33.6381L26.1884 31.6332L29.1897 34.6024C30.0103 35.4139 31.0818 35.8188 32.1529 35.8188C33.242 35.8188 34.331 35.4 35.1545 34.5639C35.1553 34.5632 35.156 34.5625 35.1567 34.5617C33.653 34.3602 32.2608 33.6813 31.1652 32.5976L28.1639 29.6284L30.1394 27.6239L33.141 30.5924C33.9616 31.4043 35.0328 31.8091 36.1039 31.8091C37.1929 31.8091 38.282 31.3903 39.1059 30.5543C40.7398 28.896 40.7226 26.2152 39.0675 24.5782L30.4842 16.0884Z" fill="white"/>
<path d="M36.9534 0L34.8799 2.06731C35.2628 2.33735 35.6273 2.63865 35.9689 2.97048L44.9946 11.7405C45.3366 12.0724 45.6472 12.4271 45.9267 12.8L47.9999 10.7334L36.9534 0Z" fill="white"/>
<path d="M13.44 5.60751L11.3455 3.52L0 14.8273L2.13984 16.96C2.39429 16.6165 2.67526 16.2888 2.98163 15.9794L12.2649 6.60796C12.6313 6.23802 13.0246 5.90405 13.44 5.60751Z" fill="white"/>
<path d="M33.9843 4.96997C31.5792 2.58835 27.6901 2.61344 25.3155 5.02569L13.4034 17.0545C12.6017 17.8582 12.1602 18.9268 12.1602 20.0638C12.1602 21.2007 12.6017 22.2694 13.4034 23.0735C14.2047 23.8772 15.2706 24.32 16.4039 24.32C17.5375 24.32 18.6034 23.8772 19.4047 23.0735L30.3823 12.0635L41.9971 23.6203L43.0325 22.5683C44.1826 21.3996 44.8103 19.8516 44.8 18.2095C44.7894 16.5677 44.1422 15.0278 42.9769 13.8739L33.9843 4.96997Z" fill="white"/>
</svg>
