<svg width="1440" height="648" viewBox="0 0 1440 648" fill="none" xmlns="http://www.w3.org/2000/svg">
<path d="M338.223 267.451C338.223 316.442 329.564 359.395 312.246 396.309C294.928 433.223 270.091 461.706 237.734 481.758C205.605 501.81 168.691 511.836 126.992 511.836C85.7487 511.836 48.9486 501.924 16.5918 482.1C-15.765 462.275 -40.8301 434.02 -58.6035 397.334C-76.377 360.42 -85.3776 318.037 -85.6055 270.186V245.576C-85.6055 196.585 -76.8327 153.519 -59.2871 116.377C-41.5137 79.0072 -16.5625 50.4102 15.5664 30.5859C47.9232 10.5339 84.8372 0.507812 126.309 0.507812C167.78 0.507812 204.58 10.5339 236.709 30.5859C269.066 50.4102 294.017 79.0072 311.562 116.377C329.336 153.519 338.223 196.471 338.223 245.234V267.451ZM234.316 244.893C234.316 192.712 224.974 153.063 206.289 125.947C187.604 98.8314 160.944 85.2734 126.309 85.2734C91.901 85.2734 65.3548 98.7174 46.6699 125.605C27.985 152.266 18.5286 191.458 18.3008 243.184V267.451C18.3008 318.265 27.6432 357.686 46.3281 385.713C65.013 413.74 91.901 427.754 126.992 427.754C161.4 427.754 187.832 414.31 206.289 387.422C224.746 360.306 234.089 320.885 234.316 269.16V244.893ZM390.859 316.67C390.859 279.984 397.923 247.285 412.051 218.574C426.178 189.863 446.458 167.646 472.891 151.924C499.551 136.201 530.426 128.34 565.518 128.34C615.42 128.34 656.094 143.607 687.539 174.141C719.212 204.674 736.872 246.146 740.518 298.555L741.201 323.848C741.201 380.586 725.365 426.159 693.691 460.566C662.018 494.746 619.521 511.836 566.201 511.836C512.881 511.836 470.27 494.746 438.369 460.566C406.696 426.387 390.859 379.902 390.859 321.113V316.67ZM489.639 323.848C489.639 358.939 496.247 385.827 509.463 404.512C522.679 422.969 541.592 432.197 566.201 432.197C590.127 432.197 608.812 423.083 622.256 404.854C635.7 386.396 642.422 357.002 642.422 316.67C642.422 282.262 635.7 255.602 622.256 236.689C608.812 217.777 589.899 208.32 565.518 208.32C541.364 208.32 522.679 217.777 509.463 236.689C496.247 255.374 489.639 284.427 489.639 323.848ZM1134.95 323.506C1134.95 380.472 1121.96 426.159 1095.99 460.566C1070.24 494.746 1035.37 511.836 991.396 511.836C954.027 511.836 923.835 498.848 900.82 472.871V647.188H802.041V135.176H893.643L897.061 171.406C920.986 142.695 952.204 128.34 990.713 128.34C1036.29 128.34 1071.72 145.202 1097.01 178.926C1122.3 212.65 1134.95 259.134 1134.95 318.379V323.506ZM1036.17 316.328C1036.17 281.921 1030.02 255.374 1017.71 236.689C1005.64 218.005 987.979 208.662 964.736 208.662C933.747 208.662 912.441 220.511 900.82 244.209V395.625C912.897 420.007 934.43 432.197 965.42 432.197C1012.59 432.197 1036.17 393.574 1036.17 316.328ZM1396.77 402.803C1396.77 390.726 1390.73 381.27 1378.65 374.434C1366.8 367.37 1347.66 361.104 1321.23 355.635C1233.27 337.178 1189.3 299.808 1189.3 243.525C1189.3 210.713 1202.85 183.369 1229.97 161.494C1257.31 139.391 1292.98 128.34 1336.95 128.34C1383.89 128.34 1421.38 139.391 1449.4 161.494C1477.66 183.597 1491.79 212.308 1491.79 247.627H1393.01C1393.01 233.499 1388.45 221.878 1379.34 212.764C1370.22 203.421 1355.98 198.75 1336.61 198.75C1319.98 198.75 1307.1 202.51 1297.99 210.029C1288.87 217.549 1284.32 227.119 1284.32 238.74C1284.32 249.678 1289.44 258.564 1299.7 265.4C1310.18 272.008 1327.72 277.819 1352.33 282.832C1376.94 287.617 1397.68 293.086 1414.54 299.238C1466.72 318.379 1492.81 351.533 1492.81 398.701C1492.81 432.425 1478.34 459.769 1449.4 480.732C1420.47 501.468 1383.1 511.836 1337.29 511.836C1306.31 511.836 1278.73 506.367 1254.58 495.43C1230.65 484.264 1211.86 469.111 1198.18 449.971C1184.51 430.602 1177.68 409.753 1177.68 387.422H1271.33C1272.24 404.967 1278.73 418.411 1290.81 427.754C1302.89 437.096 1319.07 441.768 1339.35 441.768C1358.26 441.768 1372.5 438.236 1382.07 431.172C1391.87 423.88 1396.77 414.424 1396.77 402.803ZM1564.25 456.465C1564.25 440.742 1569.49 427.982 1579.97 418.184C1590.68 408.385 1604.01 403.486 1619.96 403.486C1636.14 403.486 1649.47 408.385 1659.95 418.184C1670.66 427.982 1676.02 440.742 1676.02 456.465C1676.02 471.96 1670.77 484.606 1660.29 494.404C1649.81 503.975 1636.37 508.76 1619.96 508.76C1603.78 508.76 1590.45 503.975 1579.97 494.404C1569.49 484.606 1564.25 471.96 1564.25 456.465ZM1725.92 456.465C1725.92 440.742 1731.16 427.982 1741.64 418.184C1752.35 408.385 1765.68 403.486 1781.63 403.486C1797.81 403.486 1811.14 408.385 1821.62 418.184C1832.33 427.982 1837.69 440.742 1837.69 456.465C1837.69 471.96 1832.44 484.606 1821.96 494.404C1811.48 503.975 1798.04 508.76 1781.63 508.76C1765.45 508.76 1752.12 503.975 1741.64 494.404C1731.16 484.606 1725.92 471.96 1725.92 456.465ZM1884.51 456.465C1884.51 440.742 1889.75 427.982 1900.23 418.184C1910.94 408.385 1924.27 403.486 1940.22 403.486C1956.4 403.486 1969.73 408.385 1980.21 418.184C1990.92 427.982 1996.28 440.742 1996.28 456.465C1996.28 471.96 1991.04 484.606 1980.56 494.404C1970.07 503.975 1956.63 508.76 1940.22 508.76C1924.05 508.76 1910.72 503.975 1900.23 494.404C1889.75 484.606 1884.51 471.96 1884.51 456.465Z" fill="#151520"/>
</svg>
