<svg width="16" height="16" viewBox="0 0 16 16" fill="none" xmlns="http://www.w3.org/2000/svg">
<path fill-rule="evenodd" clip-rule="evenodd" d="M8 16C12.4183 16 16 12.4183 16 8C16 3.58172 12.4183 0 8 0C3.58172 0 0 3.58172 0 8C0 12.4183 3.58172 16 8 16Z" fill="#2E2E44"/>
<path d="M6.69434 8.81738C6.69434 8.36165 6.74967 7.9987 6.86035 7.72852C6.97103 7.45833 7.17285 7.19303 7.46582 6.93262C7.76204 6.66895 7.95898 6.45573 8.05664 6.29297C8.1543 6.12695 8.20312 5.9528 8.20312 5.77051C8.20312 5.22038 7.94922 4.94531 7.44141 4.94531C7.20052 4.94531 7.00684 5.02018 6.86035 5.16992C6.71712 5.31641 6.64225 5.51986 6.63574 5.78027H5.21973C5.22624 5.15853 5.42643 4.67188 5.82031 4.32031C6.21745 3.96875 6.75781 3.79297 7.44141 3.79297C8.13151 3.79297 8.66699 3.96061 9.04785 4.2959C9.42871 4.62793 9.61914 5.09831 9.61914 5.70703C9.61914 5.98372 9.55729 6.24577 9.43359 6.49316C9.3099 6.7373 9.09342 7.00911 8.78418 7.30859L8.38867 7.68457C8.14128 7.9222 7.99967 8.20052 7.96387 8.51953L7.94434 8.81738H6.69434ZM6.55273 10.3164C6.55273 10.0983 6.62598 9.91927 6.77246 9.7793C6.9222 9.63607 7.11263 9.56445 7.34375 9.56445C7.57487 9.56445 7.76367 9.63607 7.91016 9.7793C8.0599 9.91927 8.13477 10.0983 8.13477 10.3164C8.13477 10.5312 8.06152 10.7087 7.91504 10.8486C7.77181 10.9886 7.58138 11.0586 7.34375 11.0586C7.10612 11.0586 6.91406 10.9886 6.76758 10.8486C6.62435 10.7087 6.55273 10.5312 6.55273 10.3164Z" fill="white"/>
</svg>
