<svg width="20" height="20" viewBox="0 0 20 20" fill="none" xmlns="http://www.w3.org/2000/svg">
<g id="skype-logo">
<path id="Shape" fill-rule="evenodd" clip-rule="evenodd" d="M19.1462 9.98938C19.1462 10.6222 19.0768 11.2727 18.9383 11.9405C19.6316 12.8424 19.9784 13.8569 19.9786 14.984C19.9786 16.3628 19.4909 17.5399 18.5153 18.5156C17.5402 19.4909 16.3628 19.9789 14.9843 19.9789C13.8569 19.9789 12.8424 19.6318 11.9408 18.938C11.2728 19.0768 10.6223 19.1463 9.98938 19.1463C8.74938 19.1463 7.56355 18.9057 6.43189 18.4245C5.30032 17.9431 4.32474 17.2929 3.50528 16.4735C2.68574 15.6539 2.03535 14.6784 1.55417 13.5468C1.07294 12.415 0.832392 11.2292 0.832392 9.98938C0.832392 9.3564 0.901822 8.70592 1.0405 8.03827C0.346879 7.13645 0 6.12187 0 4.99458C0 3.61585 0.487654 2.43877 1.46333 1.4631C2.43891 0.487699 3.61599 0 4.99467 0C6.12196 0 7.13654 0.346879 8.03836 1.04059C8.70606 0.901822 9.35649 0.832392 9.98948 0.832392C11.2297 0.832392 12.4151 1.07312 13.547 1.55417C14.6786 2.03554 15.6539 2.68588 16.4734 3.50538C17.2928 4.32487 17.9432 5.30032 18.4244 6.43189C18.9059 7.56355 19.1462 8.74938 19.1462 9.98938ZM13.6768 15.0882C14.1579 14.7846 14.5418 14.3793 14.8277 13.872C15.1142 13.3648 15.257 12.7945 15.2571 12.1615C15.2571 11.7281 15.1728 11.3313 15.0036 10.9714C14.8343 10.6115 14.6241 10.3149 14.3725 10.0805C14.1211 9.84633 13.8046 9.63399 13.4231 9.44323C13.0416 9.25239 12.684 9.1051 12.35 9.00087C12.0159 8.89695 11.6368 8.79718 11.2119 8.70169L9.85913 8.38957C9.59909 8.32893 9.40815 8.28342 9.28683 8.25307C9.16547 8.22292 9.01371 8.17294 8.83153 8.10346C8.64934 8.03403 8.51923 7.96474 8.44137 7.89526C8.36346 7.82588 8.2918 7.73481 8.22679 7.6221C8.16182 7.50939 8.12925 7.37927 8.12925 7.23194C8.12925 6.5641 8.75367 6.23048 10.0022 6.23048C10.3751 6.23048 10.7087 6.28255 11.0039 6.38661C11.2984 6.49066 11.5325 6.61421 11.7059 6.75727C11.8793 6.90032 12.0442 7.0456 12.2003 7.19294C12.3567 7.34036 12.53 7.46606 12.7207 7.57007C12.9115 7.67412 13.1195 7.7262 13.345 7.7262C13.7527 7.7262 14.0801 7.58743 14.3267 7.31007C14.5742 7.03267 14.6975 6.69868 14.6975 6.30861C14.6975 5.83175 14.4548 5.40036 13.9692 5.01435C13.4838 4.62847 12.8681 4.33581 12.1224 4.1364C11.3765 3.93699 10.5878 3.83722 9.75517 3.83722C9.16551 3.83722 8.59317 3.90442 8.03831 4.03886C7.48323 4.17326 6.9651 4.37699 6.48392 4.65016C6.00282 4.92328 5.61672 5.30055 5.32633 5.78187C5.03595 6.26328 4.89066 6.82023 4.89066 7.4533C4.89066 7.98223 4.97303 8.4441 5.13777 8.83854C5.30255 9.23326 5.54538 9.5605 5.86606 9.82055C6.18683 10.0809 6.53371 10.2909 6.90665 10.4515C7.27959 10.6118 7.7262 10.7526 8.24642 10.8738L10.1456 11.3424C10.9261 11.533 11.4119 11.6891 11.6025 11.8108C11.8798 11.9842 12.0184 12.2443 12.0184 12.5913C12.0184 12.9293 11.845 13.2091 11.4983 13.4304C11.1511 13.6515 10.696 13.7619 10.1324 13.7619C9.69007 13.7619 9.29335 13.6923 8.9421 13.5536C8.59093 13.4148 8.30911 13.248 8.09677 13.0528C7.88428 12.8576 7.68715 12.6627 7.50497 12.4675C7.32278 12.2723 7.12337 12.1052 6.90661 11.9664C6.68984 11.8278 6.45581 11.7585 6.20433 11.7585C5.77075 11.7585 5.44342 11.8883 5.22232 12.1486C5.00118 12.4089 4.89057 12.7338 4.89057 13.1239C4.89057 13.9218 5.4195 14.6044 6.47749 15.1725C7.53549 15.7406 8.79708 16.0247 10.2624 16.0247C10.8955 16.0247 11.5025 15.9443 12.0834 15.784C12.6643 15.6234 13.1954 15.3918 13.6768 15.0882Z" fill="#B98A72"/>
</g>
</svg>
