<svg width="20" height="20" viewBox="0 0 20 20" fill="none" xmlns="http://www.w3.org/2000/svg">
<path fill-rule="evenodd" clip-rule="evenodd" d="M19.1464 9.98938C19.1464 10.6222 19.0769 11.2727 18.9385 11.9405C19.6318 12.8424 19.9785 13.8569 19.9788 14.984C19.9788 16.3628 19.4911 17.5399 18.5154 18.5156C17.5404 19.4909 16.363 19.9789 14.9845 19.9789C13.8571 19.9789 12.8426 19.6318 11.941 18.938C11.2729 19.0768 10.6225 19.1463 9.98957 19.1463C8.74957 19.1463 7.56374 18.9057 6.43207 18.4245C5.3005 17.9431 4.32492 17.2929 3.50547 16.4735C2.68592 15.6539 2.03554 14.6784 1.55435 13.5468C1.07312 12.415 0.832575 11.2292 0.832575 9.98938C0.832575 9.3564 0.902005 8.70592 1.04068 8.03827C0.347062 7.13645 0.000183105 6.12187 0.000183105 4.99458C0.000183105 3.61585 0.487837 2.43877 1.46351 1.4631C2.43909 0.487699 3.61617 0 4.99485 0C6.12214 0 7.13672 0.346879 8.03854 1.04059C8.70624 0.901822 9.35668 0.832392 9.98966 0.832392C11.2298 0.832392 12.4153 1.07312 13.5472 1.55417C14.6788 2.03554 15.6541 2.68588 16.4736 3.50538C17.293 4.32487 17.9434 5.30032 18.4246 6.43189C18.9061 7.56355 19.1464 8.74938 19.1464 9.98938ZM13.6769 15.0882C14.1581 14.7846 14.542 14.3793 14.8279 13.872C15.1144 13.3648 15.2572 12.7945 15.2573 12.1615C15.2573 11.7281 15.173 11.3313 15.0038 10.9714C14.8345 10.6115 14.6243 10.3149 14.3727 10.0805C14.1213 9.84633 13.8048 9.63399 13.4233 9.44323C13.0418 9.25239 12.6842 9.1051 12.3502 9.00087C12.0161 8.89695 11.6369 8.79718 11.2121 8.70169L9.85932 8.38957C9.59927 8.32893 9.40834 8.28342 9.28702 8.25307C9.16565 8.22292 9.0139 8.17294 8.83171 8.10346C8.64952 8.03403 8.51941 7.96474 8.44155 7.89526C8.36365 7.82588 8.29198 7.73481 8.22697 7.6221C8.16201 7.50939 8.12943 7.37927 8.12943 7.23194C8.12943 6.5641 8.75385 6.23048 10.0024 6.23048C10.3753 6.23048 10.7089 6.28255 11.0041 6.38661C11.2985 6.49066 11.5327 6.61421 11.7061 6.75727C11.8795 6.90032 12.0444 7.0456 12.2005 7.19294C12.3569 7.34036 12.5302 7.46606 12.7209 7.57007C12.9117 7.67412 13.1197 7.7262 13.3451 7.7262C13.7528 7.7262 14.0803 7.58743 14.3269 7.31007C14.5744 7.03267 14.6977 6.69868 14.6977 6.30861C14.6977 5.83175 14.4549 5.40036 13.9694 5.01435C13.484 4.62847 12.8683 4.33581 12.1226 4.1364C11.3767 3.93699 10.588 3.83722 9.75535 3.83722C9.1657 3.83722 8.59335 3.90442 8.0385 4.03886C7.48342 4.17326 6.96529 4.37699 6.4841 4.65016C6.00301 4.92328 5.6169 5.30055 5.32652 5.78187C5.03613 6.26328 4.89084 6.82023 4.89084 7.4533C4.89084 7.98223 4.97321 8.4441 5.13795 8.83854C5.30273 9.23326 5.54556 9.5605 5.86624 9.82055C6.18702 10.0809 6.5339 10.2909 6.90683 10.4515C7.27977 10.6118 7.72638 10.7526 8.24661 10.8738L10.1458 11.3424C10.9263 11.533 11.4121 11.6891 11.6026 11.8108C11.88 11.9842 12.0186 12.2443 12.0186 12.5913C12.0186 12.9293 11.8452 13.2091 11.4985 13.4304C11.1513 13.6515 10.6962 13.7619 10.1326 13.7619C9.69025 13.7619 9.29353 13.6923 8.94228 13.5536C8.59112 13.4148 8.30929 13.248 8.09695 13.0528C7.88447 12.8576 7.68734 12.6627 7.50515 12.4675C7.32296 12.2723 7.12355 12.1052 6.90679 11.9664C6.69002 11.8278 6.45599 11.7585 6.20451 11.7585C5.77094 11.7585 5.4436 11.8883 5.22251 12.1486C5.00137 12.4089 4.89075 12.7338 4.89075 13.1239C4.89075 13.9218 5.41968 14.6044 6.47768 15.1725C7.53567 15.7406 8.79727 16.0247 10.2626 16.0247C10.8957 16.0247 11.5026 15.9443 12.0836 15.784C12.6645 15.6234 13.1955 15.3918 13.6769 15.0882Z" fill="#44445C"/>
</svg>
