<svg width="20" height="20" viewBox="0 0 20 20" fill="none" xmlns="http://www.w3.org/2000/svg">
<rect x="0.0449219" y="10.9238" width="19.8134" height="0.125" fill="#C42126"/>
<rect x="1.0769" y="5.4917" width="17.7487" height="0.125" fill="#C42126"/>
<rect x="0.371094" y="7.302" width="19.1597" height="0.125" fill="#C42126"/>
<path d="M4.277 18.2085H15.6255L15.6261 18.2066H4.27637L4.277 18.2085Z" fill="#C42126"/>
<path d="M9.95123 0.0656543C9.75577 0.0656543 9.56186 0.0866543 9.36938 0.119404H10.5332C10.3406 0.0866543 10.1467 0.0656543 9.95123 0.0656543Z" fill="#C42126"/>
<rect x="0.0410156" y="9.11304" width="19.8197" height="0.125" fill="#C42126"/>
<path d="M12.8924 3.6811H17.6442C17.0797 2.994 16.4238 2.38577 15.6971 1.87085H12.1289C12.4242 2.3903 12.6781 3.00324 12.8924 3.6811Z" fill="#E7E7E7"/>
<path d="M12.1289 1.87077H15.6971C14.222 0.825437 12.4511 0.170815 10.5332 0.0600586H10.2268C11.1295 0.173672 11.5441 0.841739 12.1289 1.87077Z" fill="#DC3027"/>
<path d="M19.5314 7.3022C19.3545 6.67119 19.1172 6.06577 18.8256 5.49194H13.3589C13.4696 6.07316 13.557 6.68026 13.6217 7.3022H19.5314Z" fill="#E7E7E7"/>
<path d="M13.0514 5.4917H18.8255C18.4964 4.84451 18.1011 4.2372 17.6442 3.68115H12.6003C12.7782 4.24414 12.9292 4.85145 13.0514 5.4917Z" fill="#DC3027"/>
<path d="M13.8311 10.9234H19.8576C19.8862 10.6172 19.9024 10.3069 19.9024 9.99325C19.9024 9.69644 19.8868 9.40342 19.8613 9.11304H13.8325C13.8521 9.71514 13.8518 10.3217 13.8311 10.9234Z" fill="#E7E7E7"/>
<path d="M19.8616 9.11274C19.807 8.49098 19.695 7.88606 19.5314 7.30249H13.3679C13.4298 7.89531 13.4707 8.50182 13.4907 9.11274H19.8616Z" fill="#DC3027"/>
<path d="M13.2549 14.5447H18.7995C19.0952 13.9715 19.3362 13.3656 19.5169 12.7341H13.523C13.4569 13.357 13.3674 13.964 13.2549 14.5447Z" fill="#E7E7E7"/>
<path d="M19.5171 12.7341C19.6842 12.1507 19.8001 11.5458 19.8578 10.9238H13.6433C13.6221 11.5352 13.58 12.1416 13.5168 12.7341H19.5171Z" fill="#DC3027"/>
<path d="M15.6261 18.1657C16.3633 17.6529 17.0286 17.044 17.6019 16.3555H12.933C12.7147 17.0361 12.4556 17.6481 12.155 18.1657H15.6261Z" fill="#E7E7E7"/>
<path d="M12.7573 16.3555H17.6019C18.0642 15.8 18.4655 15.1927 18.7994 14.5449H13.2141C13.0901 15.1856 12.9376 15.7932 12.7573 16.3555Z" fill="#DC3027"/>
<path d="M9.65527 19.981C9.61358 19.9792 9.57197 19.9764 9.53027 19.9745C9.57197 19.9763 9.61366 19.9792 9.65527 19.981Z" fill="#DC3027"/>
<path d="M9.95117 19.9445C12.0609 19.9445 14.0157 19.286 15.6256 18.1665H12.0241C11.3849 19.2678 10.9632 19.9445 9.95117 19.9445Z" fill="#DC3027"/>
<path d="M9.95116 19.9929C9.83032 19.9929 9.71028 19.9845 9.59058 19.9719C9.71154 19.984 9.83171 19.9929 9.95116 19.9929Z" fill="#C42126"/>
<path d="M12.4584 1.87085H4.20557C3.47872 2.38577 2.82288 2.99396 2.2583 3.6811H13.2217C13.0074 3.00324 12.7536 2.3903 12.4584 1.87085Z" fill="#F3F4F5"/>
<path d="M4.20557 1.87077H12.4584C11.8734 0.841739 11.1294 0.173672 10.2267 0.0600586H9.36931C7.45145 0.170815 5.68048 0.825437 4.20557 1.87077Z" fill="#E73625"/>
<path d="M0.371338 7.3022H13.9356C13.8709 6.68014 13.7835 6.07316 13.6728 5.49194H1.07714C0.785498 6.06581 0.548271 6.67119 0.371338 7.3022Z" fill="#F3F4F5"/>
<path d="M2.25824 3.68115C1.80164 4.2372 1.40601 4.84447 1.07715 5.4917H13.6726C13.5505 4.85157 13.3995 4.2443 13.2216 3.68115C13.2216 3.68115 2.25824 3.68115 2.25824 3.68115Z" fill="#E73625"/>
<path d="M0 9.99337C0 10.307 0.0163445 10.6173 0.0447899 10.9235H14.057C14.0778 10.3217 14.0781 9.71538 14.0584 9.11328H0.0410084C0.0155462 9.40353 0 9.69656 0 9.99337Z" fill="#F3F4F5"/>
<path d="M0.0410156 9.11274H14.0583C14.0383 8.50169 13.9973 7.89535 13.9356 7.30249H0.370974C0.207402 7.88619 0.0953854 8.49098 0.0410156 9.11274Z" fill="#E73625"/>
<path d="M13.9306 12.7341H0.385498C0.566212 13.3658 0.807389 13.9715 1.10294 14.5447H13.6626C13.7751 13.9641 13.8644 13.3571 13.9306 12.7341Z" fill="#F3F4F5"/>
<path d="M0.385552 12.7341H13.9307C13.9937 12.1416 14.0359 11.535 14.0571 10.9238H0.0449219C0.102569 11.5459 0.218703 12.1507 0.385552 12.7341Z" fill="#E73625"/>
<path d="M4.27638 18.1657H12.428C12.7286 17.648 12.9878 17.0361 13.206 16.3555H2.30054C2.8739 17.044 3.53898 17.6529 4.27638 18.1657Z" fill="#F3F4F5"/>
<path d="M1.10327 14.5449C1.43718 15.1927 1.83844 15.8 2.30071 16.3555H13.2061C13.3862 15.7933 13.5388 15.1857 13.6627 14.5449H1.10327Z" fill="#E73625"/>
<path d="M9.53025 19.935C9.55038 19.9357 9.57046 19.9366 9.59059 19.9372C9.71034 19.9415 9.83038 19.9443 9.95118 19.9443C10.9632 19.9443 11.7884 19.2676 12.4278 18.1663H4.2771C5.77907 19.2109 7.58193 19.8538 9.53025 19.935Z" fill="#E73625"/>
<path d="M9.7453 0.0471191C4.64585 0.150859 0.489547 4.08821 0.0422363 9.09657H9.74547V0.0471191H9.7453Z" fill="#283991"/>
<path d="M1.9912 5.68018L2.1428 6.14698H2.63398L2.23662 6.43564L2.38839 6.90278L1.9912 6.61396L1.59414 6.90278L1.74562 6.43564L1.34839 6.14698H1.83957L1.9912 5.68018Z" fill="#EFEFEF"/>
<path d="M1.9912 7.32935L2.1428 7.79645H2.63398L2.23662 8.0851L2.38839 8.55224L1.9912 8.26342L1.59414 8.55224L1.74562 8.0851L1.34839 7.79645H1.83957L1.9912 7.32935Z" fill="#EFEFEF"/>
<path d="M3.64079 3.20581L3.79242 3.67279H4.28343L3.88621 3.96161L4.03784 4.42842L3.64079 4.13993L3.24356 4.42842L3.3952 3.96161L2.9978 3.67279H3.48898L3.64079 3.20581Z" fill="#EFEFEF"/>
<path d="M3.64079 4.85522L3.79242 5.3222H4.28343L3.88621 5.61069L4.03784 6.07783L3.64079 5.78934L3.24356 6.07783L3.3952 5.61069L2.9978 5.3222H3.48898L3.64079 4.85522Z" fill="#EFEFEF"/>
<path d="M3.64079 6.50488L3.79242 6.97203H4.28343L3.88621 7.26034L4.03784 7.72749L3.64079 7.43871L3.24356 7.72749L3.3952 7.26034L2.9978 6.97203H3.48898L3.64079 6.50488Z" fill="#EFEFEF"/>
<path d="M0.738911 7.72745L0.587146 7.26031L0.984373 6.97182H0.49349L0.482482 6.93774C0.428574 7.10447 0.379877 7.27321 0.334961 7.44384L0.341894 7.43867L0.738911 7.72745Z" fill="#EFEFEF"/>
<path d="M1.59411 5.25325L1.99117 4.96447L2.38839 5.25325L2.23663 4.78611L2.63386 4.49732H2.14268L1.99104 4.03052L1.8394 4.49732H1.65839C1.62478 4.54825 1.59226 4.59947 1.55957 4.65115L1.74562 4.78611L1.59411 5.25325Z" fill="#EFEFEF"/>
<path d="M3.64073 2.49029L4.03779 2.77878L3.88615 2.31197L4.28321 2.02319H3.99959C3.75871 2.20328 3.52632 2.39387 3.30304 2.59496L3.24316 2.77878L3.64073 2.49029Z" fill="#EFEFEF"/>
<path d="M4.89307 1.95423L5.29029 1.66545L5.68735 1.95423L5.53571 1.48709L5.93277 1.1986H5.44176L5.42118 1.13574C5.25479 1.22074 5.09013 1.30919 4.9292 1.40331L5.04454 1.48704L4.89307 1.95423Z" fill="#EFEFEF"/>
<path d="M5.29016 2.3811L5.4418 2.84778H5.93281L5.53558 3.13657L5.68722 3.60371L5.29016 3.31489L4.89293 3.60371L5.04457 3.13657L4.64722 2.84778H5.13835L5.29016 2.3811Z" fill="#EFEFEF"/>
<path d="M5.29016 4.03076L5.4418 4.49744H5.93281L5.53558 4.78622L5.68722 5.25337L5.29016 4.96454L4.89293 5.25337L5.04457 4.78622L4.64722 4.49744H5.13835L5.29016 4.03076Z" fill="#EFEFEF"/>
<path d="M5.29016 5.68018L5.4418 6.14698H5.93281L5.53558 6.43564L5.68722 6.90278L5.29016 6.61396L4.89293 6.90278L5.04457 6.43564L4.64722 6.14698H5.13835L5.29016 5.68018Z" fill="#EFEFEF"/>
<path d="M5.29016 7.32935L5.4418 7.79645H5.93281L5.53558 8.0851L5.68722 8.55224L5.29016 8.26342L4.89293 8.55224L5.04457 8.0851L4.64722 7.79645H5.13835L5.29016 7.32935Z" fill="#EFEFEF"/>
<path d="M6.93982 1.5564L7.09145 2.02337H7.58246L7.1854 2.31219L7.33687 2.779L6.93982 2.49051L6.54246 2.779L6.69423 2.31219L6.29688 2.02337H6.78801L6.93982 1.5564Z" fill="#EFEFEF"/>
<path d="M6.93982 3.20581L7.09145 3.67279H7.58246L7.1854 3.96161L7.33687 4.42842L6.93982 4.13993L6.54246 4.42842L6.69423 3.96161L6.29688 3.67279H6.78801L6.93982 3.20581Z" fill="#EFEFEF"/>
<path d="M6.93982 4.85522L7.09145 5.3222H7.58246L7.1854 5.61069L7.33687 6.07783L6.93982 5.78934L6.54246 6.07783L6.69423 5.61069L6.29688 5.3222H6.78801L6.93982 4.85522Z" fill="#EFEFEF"/>
<path d="M6.93982 6.50488L7.09145 6.97203H7.58246L7.1854 7.26034L7.33687 7.72749L6.93982 7.43871L6.54246 7.72749L6.69423 7.26034L6.29688 6.97203H6.78801L6.93982 6.50488Z" fill="#EFEFEF"/>
<path d="M8.58923 0.731689L8.74087 1.19866H9.23188L8.83465 1.48715L8.98629 1.95429L8.58923 1.66547L8.19188 1.95429L8.34364 1.48715L7.94629 1.19866H8.4373L8.58923 0.731689Z" fill="#EFEFEF"/>
<path d="M8.58923 2.3811L8.74087 2.84778H9.23188L8.83465 3.13657L8.98629 3.60371L8.58923 3.31489L8.19188 3.60371L8.34364 3.13657L7.94629 2.84778H8.4373L8.58923 2.3811Z" fill="#EFEFEF"/>
<path d="M8.58923 4.03076L8.74087 4.49744H9.23188L8.83465 4.78622L8.98629 5.25337L8.58923 4.96454L8.19188 5.25337L8.34364 4.78622L7.94629 4.49744H8.4373L8.58923 4.03076Z" fill="#EFEFEF"/>
<path d="M8.58923 5.68018L8.74087 6.14698H9.23188L8.83465 6.43564L8.98629 6.90278L8.58923 6.61396L8.19188 6.90278L8.34364 6.43564L7.94629 6.14698H8.4373L8.58923 5.68018Z" fill="#EFEFEF"/>
<path d="M8.58923 7.32935L8.74087 7.79645H9.23188L8.83465 8.0851L8.98629 8.55224L8.58923 8.26342L8.19188 8.55224L8.34364 8.0851L7.94629 7.79645H8.4373L8.58923 7.32935Z" fill="#EFEFEF"/>
</svg>
